<svg xmlns="http://www.w3.org/2000/svg" viewBox="0 0 383.48 216.27"><g id="Camada_2" data-name="Camada 2"><g id="Camada_1-2" data-name="Camada 1"><path d="M383.48,216.13c-1.62.05-3.24.14-4.86.14H0C7.5,149.39,39.68,99.17,97.71,65.08c-.58-1.06-1.18-2.23-1.83-3.36Q81.22,36.25,66.54,10.79c-1.57-2.72-2.24-5.74,0-8C68.14,1.31,71.05,0,73,.41S77.22,3,78.38,5c9.8,16.67,19.38,33.47,29,50.23.74,1.29,1.54,2.54,2.36,3.9,54.66-23.17,109.22-23.23,164.14,0,.62-1,1.33-2.14,2-3.29l29-50.27a25.27,25.27,0,0,1,1.77-2.86A6.47,6.47,0,0,1,315,.82a6.52,6.52,0,0,1,3.08,8,20.78,20.78,0,0,1-1.73,3.3Q302.19,36.8,288,61.45c-.67,1.17-1.29,2.37-2,3.72,1.1.69,2,1.3,3,1.86q79.08,47,93.23,138.07c.39,2.44.88,4.86,1.33,7.28ZM103.64,161.51A15.9,15.9,0,1,0,87.76,145.6,15.78,15.78,0,0,0,103.64,161.51Zm192.3-15.94a15.9,15.9,0,1,0-15.86,15.94A15.75,15.75,0,0,0,295.94,145.57Z"></path></g></g></svg>