<svg width="1053" height="817" viewBox="0 0 1053 817" fill="none" xmlns="http://www.w3.org/2000/svg">
<path fill-rule="evenodd" clip-rule="evenodd" d="M169.062 447.396C169.151 447.314 169.197 447.195 169.186 447.075C166.522 417.5 167.095 387.173 171.219 356.504C201.114 134.216 406.288 -21.8492 629.488 7.92309C726.221 20.8261 810.464 66.5164 872.441 132.246C872.582 132.395 872.814 132.409 872.972 132.279L1028.6 3.35562C1034.39 -1.44145 1042.9 -1.05332 1048.22 4.25093C1053.53 9.53586 1053.86 17.9972 1048.98 23.6768L794.556 319.899C793.698 320.897 793.06 322.063 792.682 323.322L717.656 573.17C715.88 579.082 708.97 581.724 703.678 578.514L580.458 503.766C577.121 501.742 572.877 501.97 569.779 504.341L514.964 546.287L514.331 546.742C483.827 568.697 387.552 635.562 291.937 688.53C244.564 714.772 194.517 739.213 151.522 752.376C130.317 758.868 107.059 763.829 84.9033 762.947C62.442 762.054 32.8916 754.462 13.6553 727.102C-6.361 698.632 -0.272513 666.725 6.29146 647.622C13.437 626.826 26.2779 605.463 41.2211 584.862C70.191 544.925 114.516 497.816 169.062 447.396ZM198.735 566.194C198.629 565.94 198.299 565.873 198.103 566.067C172.155 591.744 147.565 618.735 126.328 648.444C126.11 648.75 126.403 649.157 126.759 649.038C152.599 640.408 184.219 625.862 218.497 607.728C218.69 607.626 218.762 607.385 218.656 607.195C211.269 593.939 204.613 580.252 198.735 566.194ZM310.743 554.113C310.85 554.308 311.099 554.373 311.288 554.256C374.496 515.328 429.615 476.987 451.402 461.331L569.16 371.22C572.388 368.75 576.841 368.615 580.214 370.884L645.579 414.86C650.816 418.384 657.983 415.897 659.888 409.895L702.564 275.391C703.11 273.67 704.14 272.142 705.533 270.988L790.391 200.69C790.567 200.545 790.58 200.281 790.42 200.119C745.073 154.057 684.541 122.147 615.368 112.92C450.394 90.9144 298.743 206.267 276.647 370.567C267.8 436.353 281.065 500.012 310.743 554.113ZM327.908 733.253C327.684 733.082 327.711 732.739 327.957 732.603C364.396 712.583 399.491 691.812 429.509 673.386C429.628 673.313 429.777 673.31 429.899 673.377C461.691 690.829 497.207 702.815 535.351 707.903C700.326 729.908 851.976 614.556 874.072 450.256C880.041 405.875 875.946 362.463 863.537 322.3C863.494 322.162 863.532 322.011 863.635 321.909L945.363 240.889C945.555 240.7 945.877 240.757 945.99 241.002C977.161 308.473 990.132 385.261 979.5 464.319C949.605 686.607 744.431 842.672 521.231 812.9C448.292 803.171 382.454 774.8 327.908 733.253Z" fill="#93FF18"></path>
</svg>